<svg width="2275" height="300" xmlns="http://www.w3.org/2000/svg"><rect x="25" y="50.0" width="50" height="200.0" fill="white" stroke="black" stroke-width="2" /><text x="50" y="40.0" font-family="Verdana" font-size="14" fill="black" text-anchor="middle">32</text><text x="50" y="270" font-family="Verdana" font-size="14" fill="black" text-anchor="middle">0</text><rect x="100" y="243.75" width="50" height="6.25" fill="white" stroke="black" stroke-width="2" /><text x="125" y="233.75" font-family="Verdana" font-size="14" fill="black" text-anchor="middle">1</text><text x="125" y="270" font-family="Verdana" font-size="14" fill="black" text-anchor="middle">1</text><rect x="175" y="250.0" width="50" height="0.0" fill="white" stroke="black" stroke-width="2" /><text x="200" y="240.0" font-family="Verdana" font-size="14" fill="black" text-anchor="middle">0</text><text x="200" y="270" font-family="Verdana" font-size="14" fill="black" text-anchor="middle">2</text><rect x="250" y="243.75" width="50" height="6.25" fill="white" stroke="black" stroke-width="2" /><text x="275" y="233.75" font-family="Verdana" font-size="14" fill="black" text-anchor="middle">1</text><text x="275" y="270" font-family="Verdana" font-size="14" fill="black" text-anchor="middle">3</text><rect x="325" y="243.75" width="50" height="6.25" fill="white" stroke="black" stroke-width="2" /><text x="350" y="233.75" font-family="Verdana" font-size="14" fill="black" text-anchor="middle">1</text><text x="350" y="270" font-family="Verdana" font-size="14" fill="black" text-anchor="middle">4</text><rect x="400" y="250.0" width="50" height="0.0" fill="white" stroke="black" stroke-width="2" /><text x="425" y="240.0" font-family="Verdana" font-size="14" fill="black" text-anchor="middle">0</text><text x="425" y="270" font-family="Verdana" font-size="14" fill="black" text-anchor="middle">5</text><rect x="475" y="250.0" width="50" height="0.0" fill="white" stroke="black" stroke-width="2" /><text x="500" y="240.0" font-family="Verdana" font-size="14" fill="black" text-anchor="middle">0</text><text x="500" y="270" font-family="Verdana" font-size="14" fill="black" text-anchor="middle">6</text><rect x="550" y="250.0" width="50" height="0.0" fill="white" stroke="black" stroke-width="2" /><text x="575" y="240.0" font-family="Verdana" font-size="14" fill="black" text-anchor="middle">0</text><text x="575" y="270" font-family="Verdana" font-size="14" fill="black" text-anchor="middle">7</text><rect x="625" y="250.0" width="50" height="0.0" fill="white" stroke="black" stroke-width="2" /><text x="650" y="240.0" font-family="Verdana" font-size="14" fill="black" text-anchor="middle">0</text><text x="650" y="270" font-family="Verdana" font-size="14" fill="black" text-anchor="middle">8</text><rect x="700" y="250.0" width="50" height="0.0" fill="white" stroke="black" stroke-width="2" /><text x="725" y="240.0" font-family="Verdana" font-size="14" fill="black" text-anchor="middle">0</text><text x="725" y="270" font-family="Verdana" font-size="14" fill="black" text-anchor="middle">9</text><rect x="775" y="250.0" width="50" height="0.0" fill="white" stroke="black" stroke-width="2" /><text x="800" y="240.0" font-family="Verdana" font-size="14" fill="black" text-anchor="middle">0</text><text x="800" y="270" font-family="Verdana" font-size="14" fill="black" text-anchor="middle">10</text><rect x="850" y="250.0" width="50" height="0.0" fill="white" stroke="black" stroke-width="2" /><text x="875" y="240.0" font-family="Verdana" font-size="14" fill="black" text-anchor="middle">0</text><text x="875" y="270" font-family="Verdana" font-size="14" fill="black" text-anchor="middle">11</text><rect x="925" y="250.0" width="50" height="0.0" fill="white" stroke="black" stroke-width="2" /><text x="950" y="240.0" font-family="Verdana" font-size="14" fill="black" text-anchor="middle">0</text><text x="950" y="270" font-family="Verdana" font-size="14" fill="black" text-anchor="middle">12</text><rect x="1000" y="250.0" width="50" height="0.0" fill="white" stroke="black" stroke-width="2" /><text x="1025" y="240.0" font-family="Verdana" font-size="14" fill="black" text-anchor="middle">0</text><text x="1025" y="270" font-family="Verdana" font-size="14" fill="black" text-anchor="middle">13</text><rect x="1075" y="250.0" width="50" height="0.0" fill="white" stroke="black" stroke-width="2" /><text x="1100" y="240.0" font-family="Verdana" font-size="14" fill="black" text-anchor="middle">0</text><text x="1100" y="270" font-family="Verdana" font-size="14" fill="black" text-anchor="middle">14</text><rect x="1150" y="250.0" width="50" height="0.0" fill="white" stroke="black" stroke-width="2" /><text x="1175" y="240.0" font-family="Verdana" font-size="14" fill="black" text-anchor="middle">0</text><text x="1175" y="270" font-family="Verdana" font-size="14" fill="black" text-anchor="middle">15</text><rect x="1225" y="250.0" width="50" height="0.0" fill="white" stroke="black" stroke-width="2" /><text x="1250" y="240.0" font-family="Verdana" font-size="14" fill="black" text-anchor="middle">0</text><text x="1250" y="270" font-family="Verdana" font-size="14" fill="black" text-anchor="middle">16</text><rect x="1300" y="250.0" width="50" height="0.0" fill="white" stroke="black" stroke-width="2" /><text x="1325" y="240.0" font-family="Verdana" font-size="14" fill="black" text-anchor="middle">0</text><text x="1325" y="270" font-family="Verdana" font-size="14" fill="black" text-anchor="middle">17</text><rect x="1375" y="250.0" width="50" height="0.0" fill="white" stroke="black" stroke-width="2" /><text x="1400" y="240.0" font-family="Verdana" font-size="14" fill="black" text-anchor="middle">0</text><text x="1400" y="270" font-family="Verdana" font-size="14" fill="black" text-anchor="middle">18</text><rect x="1450" y="250.0" width="50" height="0.0" fill="white" stroke="black" stroke-width="2" /><text x="1475" y="240.0" font-family="Verdana" font-size="14" fill="black" text-anchor="middle">0</text><text x="1475" y="270" font-family="Verdana" font-size="14" fill="black" text-anchor="middle">19</text><rect x="1525" y="250.0" width="50" height="0.0" fill="white" stroke="black" stroke-width="2" /><text x="1550" y="240.0" font-family="Verdana" font-size="14" fill="black" text-anchor="middle">0</text><text x="1550" y="270" font-family="Verdana" font-size="14" fill="black" text-anchor="middle">20</text><rect x="1600" y="243.75" width="50" height="6.25" fill="white" stroke="black" stroke-width="2" /><text x="1625" y="233.75" font-family="Verdana" font-size="14" fill="black" text-anchor="middle">1</text><text x="1625" y="270" font-family="Verdana" font-size="14" fill="black" text-anchor="middle">21</text><rect x="1675" y="250.0" width="50" height="0.0" fill="white" stroke="black" stroke-width="2" /><text x="1700" y="240.0" font-family="Verdana" font-size="14" fill="black" text-anchor="middle">0</text><text x="1700" y="270" font-family="Verdana" font-size="14" fill="black" text-anchor="middle">22</text><rect x="1750" y="237.5" width="50" height="12.5" fill="white" stroke="black" stroke-width="2" /><text x="1775" y="227.5" font-family="Verdana" font-size="14" fill="black" text-anchor="middle">2</text><text x="1775" y="270" font-family="Verdana" font-size="14" fill="black" text-anchor="middle">23</text><rect x="1825" y="218.75" width="50" height="31.25" fill="white" stroke="black" stroke-width="2" /><text x="1850" y="208.75" font-family="Verdana" font-size="14" fill="black" text-anchor="middle">5</text><text x="1850" y="270" font-family="Verdana" font-size="14" fill="black" text-anchor="middle">24</text><rect x="1900" y="237.5" width="50" height="12.5" fill="white" stroke="black" stroke-width="2" /><text x="1925" y="227.5" font-family="Verdana" font-size="14" fill="black" text-anchor="middle">2</text><text x="1925" y="270" font-family="Verdana" font-size="14" fill="black" text-anchor="middle">25</text><rect x="1975" y="250.0" width="50" height="0.0" fill="white" stroke="black" stroke-width="2" /><text x="2000" y="240.0" font-family="Verdana" font-size="14" fill="black" text-anchor="middle">0</text><text x="2000" y="270" font-family="Verdana" font-size="14" fill="black" text-anchor="middle">26</text><rect x="2050" y="250.0" width="50" height="0.0" fill="white" stroke="black" stroke-width="2" /><text x="2075" y="240.0" font-family="Verdana" font-size="14" fill="black" text-anchor="middle">0</text><text x="2075" y="270" font-family="Verdana" font-size="14" fill="black" text-anchor="middle">27</text><rect x="2125" y="243.75" width="50" height="6.25" fill="white" stroke="black" stroke-width="2" /><text x="2150" y="233.75" font-family="Verdana" font-size="14" fill="black" text-anchor="middle">1</text><text x="2150" y="270" font-family="Verdana" font-size="14" fill="black" text-anchor="middle">28</text><rect x="2200" y="243.75" width="50" height="6.25" fill="white" stroke="black" stroke-width="2" /><text x="2225" y="233.75" font-family="Verdana" font-size="14" fill="black" text-anchor="middle">1</text><text x="2225" y="270" font-family="Verdana" font-size="14" fill="black" text-anchor="middle">29</text></svg>